<?xml version="1.0" encoding="UTF-8"?>
<svg xmlns="http://www.w3.org/2000/svg" viewBox="0 0 800 500">
  
    <defs>
      <radialGradient id="bg" cx="80%" cy="20%" r="80%">
        <stop offset="0%" stop-color="#f87b15" stop-opacity="0.40"/>
        <stop offset="55%" stop-color="#262620"  stop-opacity="0.95"/>
        <stop offset="100%" stop-color="#0c0c09" stop-opacity="1"/>
      </radialGradient>
      <radialGradient id="orb" cx="35%" cy="30%" r="65%">
        <stop offset="0%"  stop-color="#fff3c8"/>
        <stop offset="35%" stop-color="#ffd89a"/>
        <stop offset="70%" stop-color="#ff9b2d"/>
        <stop offset="100%" stop-color="#c0420c" stop-opacity="0.92"/>
      </radialGradient>
      <radialGradient id="halo" cx="35%" cy="30%" r="58%">
        <stop offset="0%"  stop-color="#ff9b2d" stop-opacity="0.45"/>
        <stop offset="100%" stop-color="#ff9b2d" stop-opacity="0"/>
      </radialGradient>
      <linearGradient id="card" x1="0%" y1="0%" x2="0%" y2="100%">
        <stop offset="0%" stop-color="rgba(38,38,32,0.92)"/>
        <stop offset="100%" stop-color="rgba(28,26,22,0.95)"/>
      </linearGradient>
      <linearGradient id="ember-text" x1="0%" y1="0%" x2="0%" y2="100%">
        <stop offset="0%" stop-color="#ffd89a"/>
        <stop offset="100%" stop-color="#f87b15"/>
      </linearGradient>
      <linearGradient id="ember-fill" x1="0%" y1="0%" x2="0%" y2="100%">
        <stop offset="0%" stop-color="#ff9b2d"/>
        <stop offset="100%" stop-color="#e85d0a"/>
      </linearGradient>
      <symbol id="brand" viewBox="0 0 24 24">
        <path d="M3 11 Q3 9 5 9 L19 9 Q21 9 21 11 L20 16 Q19 20 16 20 L8 20 Q5 20 4 16 Z"
              fill="none" stroke="currentColor" stroke-width="1.6" stroke-linejoin="round"/>
        <path d="M12 3 C9 7 8 9 9 12 C9.6 14 11 14.6 12 14.6 C13 14.6 14.4 14 15 12 C16 9 15 7 12 3 Z"
              fill="currentColor"/>
      </symbol>
      <symbol id="flame" viewBox="0 0 24 24">
        <path d="M12 3 C9 7 7.5 10 8 13 Q9 17 12 18 Q15 17 16 13 C16.5 10 15 7 12 3 Z" fill="currentColor"/>
      </symbol>
      <symbol id="save" viewBox="0 0 24 24">
        <path d="M7 4 L17 4 Q18 4 18 5 L18 20 L12 16 L6 20 L6 5 Q6 4 7 4 Z"
              fill="none" stroke="currentColor" stroke-width="1.6" stroke-linejoin="round" stroke-linecap="round"/>
      </symbol>
      <symbol id="spark" viewBox="0 0 24 24">
        <path d="M12 3 L13.5 8.2 L18.5 9.5 L13.5 10.8 L12 16 L10.5 10.8 L5.5 9.5 L10.5 8.2 Z" fill="currentColor"/>
      </symbol>
      <symbol id="thread" viewBox="0 0 24 24">
        <path d="M8 7 Q4 7 4 11 Q4 15 8 15 L11 15"
              fill="none" stroke="currentColor" stroke-width="1.6" stroke-linecap="round"/>
        <path d="M16 9 L13 9 Q9 9 9 13 Q9 17 13 17 L16 17"
              fill="none" stroke="currentColor" stroke-width="1.6" stroke-linecap="round" opacity="0.5"/>
        <path d="M16 17 Q20 17 20 13 Q20 9 16 9"
              fill="none" stroke="currentColor" stroke-width="1.6" stroke-linecap="round"/>
      </symbol>
      <symbol id="feather" viewBox="0 0 24 24">
        <path d="M19 5 Q14 5 10 9 Q6 13 6 18 L7.5 16.5 Q11 13 14 12 Q11 14 9 17 L11 17 Q15 17 18 14 Q21 11 21 7 Q21 5 19 5 Z"
              fill="none" stroke="currentColor" stroke-width="1.6" stroke-linejoin="round" stroke-linecap="round"/>
        <path d="M6 18 L4 20" stroke="currentColor" stroke-width="1.6" stroke-linecap="round"/>
      </symbol>
      <symbol id="shield" viewBox="0 0 24 24">
        <path d="M12 3 L20 6 L20 12 Q20 18 12 21 Q4 18 4 12 L4 6 Z"
              fill="none" stroke="currentColor" stroke-width="1.6" stroke-linejoin="round"/>
        <path d="M9 12 L11.4 14.4 L15 10.6"
              fill="none" stroke="currentColor" stroke-width="1.6" stroke-linecap="round" stroke-linejoin="round"/>
      </symbol>
      <symbol id="search" viewBox="0 0 24 24">
        <circle cx="11" cy="11" r="6.5" fill="none" stroke="currentColor" stroke-width="1.6"/>
        <path d="M16 16 L21 21" stroke="currentColor" stroke-width="1.6" stroke-linecap="round"/>
      </symbol>
      <filter id="grain">
        <feTurbulence baseFrequency="0.85" numOctaves="2"/>
        <feColorMatrix values="0 0 0 0 1  0 0 0 0 0.85  0 0 0 0 0.5  0 0 0 0.04 0"/>
      </filter>
    </defs>
  
    <rect width="800" height="500" fill="url(#bg)"/>
    <rect width="800" height="500" filter="url(#grain)" opacity="0.6"/>

  <!-- fake browser frame -->
  <g transform="translate(60, 60)">
    <rect width="680" height="60" rx="14" fill="rgba(20,18,15,0.85)" stroke="rgba(255,243,220,0.10)"/>
    <circle cx="20" cy="30" r="6" fill="#e57373"/>
    <circle cx="40" cy="30" r="6" fill="#fbbf24"/>
    <circle cx="60" cy="30" r="6" fill="#6ee7b7"/>
    <rect x="84" y="18" width="540" height="24" rx="12" fill="rgba(38,36,30,0.7)"/>
    <text x="100" y="34" font-size="11.5" fill="#8e8a7a" font-family="'JetBrains Mono', ui-monospace, monospace">developer.mozilla.org/.../File_System_Access_API</text>
    <rect x="640" y="20" width="22" height="22" rx="7" fill="url(#orb)"/>
  </g>

  <!-- article body (faded) -->
  <g transform="translate(80, 150)" font-size="14" fill="#b6b3a3" font-family="'Noto Serif SC', 'Inter', system-ui, sans-serif">
    <text y="0">The Origin Private File System (OPFS) is a storage endpoint</text>
    <text y="22">that is private to the origin and not exposed via the user-visible</text>
    <text y="44">file system. It is optimized for performance and provides synchronous</text>
    <text y="66">file access from within dedicated Web Workers.</text>
  </g>

  <!-- recall orb cluster, bottom right -->
  <g transform="translate(685, 415)">
    <circle cx="0" cy="0" r="60" fill="url(#halo)"/>
    <circle cx="0" cy="0" r="28" fill="url(#orb)" stroke="rgba(255,255,255,0.25)"/>
    <use href="#flame" x="-12" y="-12" width="24" height="24" color="rgba(45,18,0,0.88)"/>
  </g>

  <!-- tooltip -->
  <g transform="translate(380, 280)">
    <rect width="280" height="138" rx="14"
          fill="rgba(20,18,15,0.95)" stroke="rgba(255,243,220,0.12)"/>
    <use href="#flame" x="14" y="14" width="13" height="13" color="#ff9b2d"/>
    <text x="32" y="25" font-size="10.5" fill="#ff9b2d" font-family="'JetBrains Mono', ui-monospace, monospace"
          letter-spacing="0.14em">HEARTH 想起来了</text>
    <text x="14" y="50" font-size="13.5" fill="#f7f7f5" font-family="'Noto Serif SC', 'Inter', system-ui, sans-serif">你 3 周前读 SQLite WAL 时也想过这个当时你写下</text><text x="14" y="70.25" font-size="13.5" fill="#f7f7f5" font-family="'Noto Serif SC', 'Inter', system-ui, sans-serif">「OPFS 是新派 SQLite 的家」</text>
    <g transform="translate(14, 100)">
      <rect width="115" height="26" rx="6" fill="rgba(255,255,255,0.05)" stroke="rgba(255,243,220,0.10)"/>
      <text x="57" y="17" text-anchor="middle" font-size="11.5" fill="#d6d4ca" font-family="'Noto Serif SC', 'Inter', system-ui, sans-serif">稍后</text>
      <rect x="125" y="0" width="125" height="26" rx="6" fill="url(#ember-fill)"/>
      <text x="187" y="17" text-anchor="middle" font-size="11.5" fill="#fff" font-family="'Noto Serif SC', 'Inter', system-ui, sans-serif" font-weight="600">去看那段 →</text>
    </g>
  </g>

  <!-- caption -->
  <text x="60" y="470" font-size="13" fill="#8e8a7a" font-family="'JetBrains Mono', ui-monospace, monospace"
        letter-spacing="0.2em">L2  ·  REVERSE  RECALL</text>
</svg>