<?xml version="1.0" encoding="UTF-8"?>
<svg xmlns="http://www.w3.org/2000/svg" viewBox="0 0 1400 560">
  <defs>
    <radialGradient id="bg" cx="78%" cy="20%" r="80%">
      <stop offset="0%" stop-color="#ff9b2d" stop-opacity="0.40"/>
      <stop offset="60%" stop-color="#262620" stop-opacity="0.95"/>
      <stop offset="100%" stop-color="#131210" stop-opacity="1"/>
    </radialGradient>
    <radialGradient id="orb" cx="35%" cy="30%" r="65%">
      <stop offset="0%"  stop-color="#fff3c8"/>
      <stop offset="35%" stop-color="#ffd89a"/>
      <stop offset="70%" stop-color="#ff9b2d"/>
      <stop offset="100%" stop-color="#c0420c" stop-opacity="0.9"/>
    </radialGradient>
    <radialGradient id="halo" cx="35%" cy="30%" r="58%">
      <stop offset="0%"  stop-color="#ff9b2d" stop-opacity="0.45"/>
      <stop offset="100%" stop-color="#ff9b2d" stop-opacity="0"/>
    </radialGradient>
  </defs>

  <rect width="1400" height="560" fill="url(#bg)"/>

  <!-- Decorative grain -->
  <g opacity="0.06" fill="white">
    <circle cx="1276" cy="366" r="0.5"/>
    <circle cx="804" cy="64" r="1.4"/>
    <circle cx="1239" cy="480" r="1.4"/>
    <circle cx="713" cy="108" r="1.8"/>
    <circle cx="1045" cy="377" r="0.7"/>
    <circle cx="141" cy="400" r="1.9"/>
    <circle cx="648" cy="481" r="2.0"/>
    <circle cx="707" cy="36" r="0.8"/>
    <circle cx="1074" cy="53" r="0.8"/>
    <circle cx="399" cy="136" r="0.8"/>
    <circle cx="261" cy="257" r="1.7"/>
    <circle cx="31" cy="419" r="0.7"/>
    <circle cx="1132" cy="161" r="1.9"/>
    <circle cx="1333" cy="482" r="0.9"/>
    <circle cx="130" cy="141" r="1.5"/>
    <circle cx="1087" cy="522" r="1.5"/>
    <circle cx="1004" cy="59" r="0.6"/>
    <circle cx="249" cy="445" r="1.1"/>
    <circle cx="741" cy="123" r="0.8"/>
    <circle cx="1141" cy="38" r="1.0"/>
    <circle cx="285" cy="158" r="0.6"/>
    <circle cx="183" cy="79" r="0.9"/>
    <circle cx="189" cy="525" r="1.0"/>
    <circle cx="1321" cy="488" r="1.6"/>
    <circle cx="341" cy="449" r="0.5"/>
    <circle cx="1396" cy="112" r="1.2"/>
    <circle cx="702" cy="535" r="1.8"/>
    <circle cx="326" cy="305" r="1.2"/>
    <circle cx="1262" cy="462" r="0.7"/>
    <circle cx="880" cy="103" r="1.4"/>
    <circle cx="225" cy="136" r="0.7"/>
    <circle cx="607" cy="432" r="1.4"/>
    <circle cx="317" cy="216" r="1.5"/>
    <circle cx="1015" cy="533" r="2.0"/>
    <circle cx="270" cy="50" r="0.8"/>
    <circle cx="171" cy="151" r="0.9"/>
    <circle cx="155" cy="422" r="1.9"/>
    <circle cx="476" cy="384" r="1.2"/>
    <circle cx="1140" cy="458" r="1.7"/>
    <circle cx="12" cy="209" r="0.9"/>
    <circle cx="636" cy="145" r="1.6"/>
    <circle cx="1363" cy="457" r="2.0"/>
    <circle cx="483" cy="35" r="0.6"/>
    <circle cx="441" cy="368" r="0.7"/>
    <circle cx="257" cy="175" r="1.5"/>
    <circle cx="1285" cy="214" r="1.3"/>
    <circle cx="817" cy="470" r="1.8"/>
    <circle cx="253" cy="47" r="1.0"/>
    <circle cx="441" cy="93" r="1.6"/>
    <circle cx="247" cy="76" r="1.5"/>
    <circle cx="573" cy="445" r="1.0"/>
    <circle cx="232" cy="182" r="1.3"/>
    <circle cx="72" cy="472" r="0.7"/>
    <circle cx="795" cy="325" r="1.8"/>
    <circle cx="511" cy="216" r="1.8"/>
    <circle cx="257" cy="323" r="0.7"/>
    <circle cx="214" cy="240" r="0.8"/>
    <circle cx="929" cy="409" r="0.7"/>
    <circle cx="219" cy="331" r="0.7"/>
    <circle cx="799" cy="530" r="1.9"/>
    <circle cx="611" cy="234" r="1.5"/>
    <circle cx="905" cy="340" r="0.8"/>
    <circle cx="545" cy="357" r="1.3"/>
    <circle cx="631" cy="514" r="0.7"/>
    <circle cx="1092" cy="397" r="1.7"/>
    <circle cx="1003" cy="260" r="0.9"/>
    <circle cx="334" cy="341" r="1.2"/>
    <circle cx="1047" cy="388" r="1.8"/>
    <circle cx="230" cy="19" r="1.4"/>
    <circle cx="488" cy="511" r="1.3"/>
    <circle cx="1081" cy="439" r="1.1"/>
    <circle cx="407" cy="52" r="1.6"/>
    <circle cx="47" cy="542" r="0.6"/>
    <circle cx="1384" cy="179" r="1.9"/>
    <circle cx="685" cy="132" r="1.4"/>
    <circle cx="433" cy="533" r="1.8"/>
    <circle cx="163" cy="146" r="1.6"/>
    <circle cx="1250" cy="511" r="0.8"/>
    <circle cx="1151" cy="56" r="1.1"/>
    <circle cx="1035" cy="459" r="0.9"/>
  </g>

  <!-- Orb cluster on the right -->
  <g transform="translate(1092, 252)">
    <circle cx="0" cy="0" r="220" fill="url(#halo)"/>
    <circle cx="0" cy="0" r="140" fill="url(#orb)" stroke="rgba(255,255,255,0.2)" stroke-width="2"/>
    <!-- flame glyph inside orb -->
    <g transform="translate(-50, -52) scale(4.2)">
      <path d="M12 3 C9 7 7.5 10 8 13 Q9 17 12 18 Q15 17 16 13 C16.5 10 15 7 12 3 Z" fill="rgba(45,18,0,0.85)"/>
    </g>
  </g>

  <!-- Text block on the left -->
  <g transform="translate(70, 200)">
    <text x="0" y="0" font-family="Noto Serif SC, serif" font-weight="700"
          font-size="86" fill="#ebe9e0" letter-spacing="-1">Hearth</text>
    <text x="0" y="130" font-family="Inter, sans-serif" font-weight="500"
          font-size="32" fill="#b8b4a4">Your reading, remembered. Quietly.</text>
    
    <g transform="translate(0, 200)">
      <rect x="0" y="0" width="180" height="44" rx="22" fill="#ff9b2d"/>
      <text x="90" y="29" text-anchor="middle" font-family="Inter, sans-serif"
            font-weight="600" font-size="16" fill="#fff">Install ☕</text>
    </g>
    
  </g>

  <!-- Bottom-left tagline (big only) -->
  
  <g transform="translate(70, 500)">
    <text font-family="JetBrains Mono, monospace" font-size="14" fill="#898577"
          letter-spacing="2" text-transform="uppercase">
      LOCAL-FIRST  ·  BYOK  ·  MIT OPEN SOURCE
    </text>
  </g>
  
</svg>