<?xml version="1.0" encoding="UTF-8"?>
<svg xmlns="http://www.w3.org/2000/svg" viewBox="0 0 1600 720">
  
    <defs>
      <radialGradient id="bg" cx="80%" cy="20%" r="80%">
        <stop offset="0%" stop-color="#f87b15" stop-opacity="0.40"/>
        <stop offset="55%" stop-color="#262620"  stop-opacity="0.95"/>
        <stop offset="100%" stop-color="#0c0c09" stop-opacity="1"/>
      </radialGradient>
      <radialGradient id="orb" cx="35%" cy="30%" r="65%">
        <stop offset="0%"  stop-color="#fff3c8"/>
        <stop offset="35%" stop-color="#ffd89a"/>
        <stop offset="70%" stop-color="#ff9b2d"/>
        <stop offset="100%" stop-color="#c0420c" stop-opacity="0.92"/>
      </radialGradient>
      <radialGradient id="halo" cx="35%" cy="30%" r="58%">
        <stop offset="0%"  stop-color="#ff9b2d" stop-opacity="0.45"/>
        <stop offset="100%" stop-color="#ff9b2d" stop-opacity="0"/>
      </radialGradient>
      <linearGradient id="card" x1="0%" y1="0%" x2="0%" y2="100%">
        <stop offset="0%" stop-color="rgba(38,38,32,0.92)"/>
        <stop offset="100%" stop-color="rgba(28,26,22,0.95)"/>
      </linearGradient>
      <linearGradient id="ember-text" x1="0%" y1="0%" x2="0%" y2="100%">
        <stop offset="0%" stop-color="#ffd89a"/>
        <stop offset="100%" stop-color="#f87b15"/>
      </linearGradient>
      <linearGradient id="ember-fill" x1="0%" y1="0%" x2="0%" y2="100%">
        <stop offset="0%" stop-color="#ff9b2d"/>
        <stop offset="100%" stop-color="#e85d0a"/>
      </linearGradient>
      <symbol id="brand" viewBox="0 0 24 24">
        <path d="M3 11 Q3 9 5 9 L19 9 Q21 9 21 11 L20 16 Q19 20 16 20 L8 20 Q5 20 4 16 Z"
              fill="none" stroke="currentColor" stroke-width="1.6" stroke-linejoin="round"/>
        <path d="M12 3 C9 7 8 9 9 12 C9.6 14 11 14.6 12 14.6 C13 14.6 14.4 14 15 12 C16 9 15 7 12 3 Z"
              fill="currentColor"/>
      </symbol>
      <symbol id="flame" viewBox="0 0 24 24">
        <path d="M12 3 C9 7 7.5 10 8 13 Q9 17 12 18 Q15 17 16 13 C16.5 10 15 7 12 3 Z" fill="currentColor"/>
      </symbol>
      <symbol id="save" viewBox="0 0 24 24">
        <path d="M7 4 L17 4 Q18 4 18 5 L18 20 L12 16 L6 20 L6 5 Q6 4 7 4 Z"
              fill="none" stroke="currentColor" stroke-width="1.6" stroke-linejoin="round" stroke-linecap="round"/>
      </symbol>
      <symbol id="spark" viewBox="0 0 24 24">
        <path d="M12 3 L13.5 8.2 L18.5 9.5 L13.5 10.8 L12 16 L10.5 10.8 L5.5 9.5 L10.5 8.2 Z" fill="currentColor"/>
      </symbol>
      <symbol id="thread" viewBox="0 0 24 24">
        <path d="M8 7 Q4 7 4 11 Q4 15 8 15 L11 15"
              fill="none" stroke="currentColor" stroke-width="1.6" stroke-linecap="round"/>
        <path d="M16 9 L13 9 Q9 9 9 13 Q9 17 13 17 L16 17"
              fill="none" stroke="currentColor" stroke-width="1.6" stroke-linecap="round" opacity="0.5"/>
        <path d="M16 17 Q20 17 20 13 Q20 9 16 9"
              fill="none" stroke="currentColor" stroke-width="1.6" stroke-linecap="round"/>
      </symbol>
      <symbol id="feather" viewBox="0 0 24 24">
        <path d="M19 5 Q14 5 10 9 Q6 13 6 18 L7.5 16.5 Q11 13 14 12 Q11 14 9 17 L11 17 Q15 17 18 14 Q21 11 21 7 Q21 5 19 5 Z"
              fill="none" stroke="currentColor" stroke-width="1.6" stroke-linejoin="round" stroke-linecap="round"/>
        <path d="M6 18 L4 20" stroke="currentColor" stroke-width="1.6" stroke-linecap="round"/>
      </symbol>
      <symbol id="shield" viewBox="0 0 24 24">
        <path d="M12 3 L20 6 L20 12 Q20 18 12 21 Q4 18 4 12 L4 6 Z"
              fill="none" stroke="currentColor" stroke-width="1.6" stroke-linejoin="round"/>
        <path d="M9 12 L11.4 14.4 L15 10.6"
              fill="none" stroke="currentColor" stroke-width="1.6" stroke-linecap="round" stroke-linejoin="round"/>
      </symbol>
      <symbol id="search" viewBox="0 0 24 24">
        <circle cx="11" cy="11" r="6.5" fill="none" stroke="currentColor" stroke-width="1.6"/>
        <path d="M16 16 L21 21" stroke="currentColor" stroke-width="1.6" stroke-linecap="round"/>
      </symbol>
      <filter id="grain">
        <feTurbulence baseFrequency="0.85" numOctaves="2"/>
        <feColorMatrix values="0 0 0 0 1  0 0 0 0 0.85  0 0 0 0 0.5  0 0 0 0.04 0"/>
      </filter>
    </defs>
  
    <rect width="1600" height="720" fill="url(#bg)"/>
    <rect width="1600" height="720" filter="url(#grain)" opacity="0.6"/>

  <!-- Decorative orbits -->
  <g opacity="0.18">
    <circle cx="1360" cy="360" r="280" fill="none" stroke="#ff9b2d" stroke-width="0.5"/>
    <circle cx="1360" cy="360" r="220" fill="none" stroke="#ff9b2d" stroke-width="0.5"/>
    <circle cx="1360" cy="360" r="160" fill="none" stroke="#ff9b2d" stroke-width="0.5"/>
  </g>

  <!-- Sidepanel mock card -->
  <g transform="translate(90, 110)">
    <rect width="360" height="500" rx="22"
          fill="url(#card)" stroke="rgba(255,243,220,0.12)" stroke-width="1.5"/>
    <!-- titlebar -->
    <g transform="translate(20, 18)">
      <rect width="26" height="26" rx="8" fill="url(#orb)"/>
      <use href="#brand" x="3" y="3" width="20" height="20" color="rgba(20,18,15,0.85)"/>
      <text x="38" y="19" font-size="15" font-weight="700" fill="#f7f7f5" font-family="'Noto Serif SC', 'Inter', system-ui, sans-serif">Hearth</text>
      <text x="320" y="19" font-size="10.5" fill="#8e8a7a" font-family="'JetBrains Mono', ui-monospace, monospace" text-anchor="end">1,243 notes</text>
    </g>
    <!-- search box -->
    <g transform="translate(20, 60)">
      <rect width="320" height="32" rx="16" fill="rgba(38,36,30,0.7)" stroke="rgba(255,243,220,0.08)"/>
      <use href="#search" x="12" y="9" width="14" height="14" color="#8e8a7a"/>
      <text x="32" y="20" font-size="12.5" fill="#8e8a7a" font-family="'Noto Serif SC', 'Inter', system-ui, sans-serif">搜索你的知识库……</text>
      <rect x="290" y="8" width="32" height="16" rx="4" fill="rgba(255,243,220,0.06)" stroke="rgba(255,243,220,0.08)"/>
      <text x="306" y="19" text-anchor="middle" font-size="9.5" fill="#8e8a7a" font-family="'JetBrains Mono', ui-monospace, monospace">⌘K</text>
    </g>

    <!-- Recall hero card -->
    <g transform="translate(20, 110)">
      <rect width="320" height="100" rx="14"
            fill="rgba(255,155,45,0.10)" stroke="rgba(255,155,45,0.22)"/>
      <use href="#flame" x="14" y="13" width="14" height="14" color="#ff9b2d"/>
      <text x="32" y="24" font-size="10.5" fill="#ff9b2d" font-family="'JetBrains Mono', ui-monospace, monospace"
            letter-spacing="0.16em">HEARTH 想起来了</text>
      <text x="14" y="42" font-size="13" fill="#f7f7f5" font-family="'Noto Serif SC', 'Inter', system-ui, sans-serif">你 3 周前读 SQLite WAL 时也碰过这个并发问题当时你写下「fsync 才</text><text x="14" y="61.5" font-size="13" fill="#f7f7f5" font-family="'Noto Serif SC', 'Inter', system-ui, sans-serif">是真瓶颈」</text>
    </g>

    <!-- Notes list -->
    <g transform="translate(20, 230)">
      <text x="0" y="0" font-size="10" fill="#8e8a7a" font-family="'JetBrains Mono', ui-monospace, monospace"
            letter-spacing="0.12em">今天</text>
      
      <g transform="translate(0, 12)">
        <rect x="0" y="0" width="328" height="92" rx="10"
              fill="rgba(38,36,30,0.88)" stroke="rgba(255,243,220,0.08)"/>
        <circle cx="14" cy="14" r="4" fill="#e85d0a"/>
        <text x="26" y="18" font-size="10.5" fill="#b6b3a3" font-family="'Noto Serif SC', 'Inter', system-ui, sans-serif">developer.mozilla.org</text>
        <text x="310" y="18" font-size="10" fill="#8e8a7a" font-family="'JetBrains Mono', ui-monospace, monospace" text-anchor="end">14:32</text>
        
        <text x="48" y="38" font-size="12.5" fill="#f7f7f5" font-family="'Noto Serif SC', 'Inter', system-ui, sans-serif">Service Worker idle timeout is 30 seconds in</text><text x="48" y="56.75" font-size="12.5" fill="#f7f7f5" font-family="'Noto Serif SC', 'Inter', system-ui, sans-serif">Manifest V3  long-running tasks must hop</text><text x="48" y="75.5" font-size="12.5" fill="#f7f7f5" font-family="'Noto Serif SC', 'Inter', system-ui, sans-serif">through an offscreen document.</text>
        <g transform="translate(14, 76)">
          
              <rect x="0" y="0" width="86" height="14" rx="7"
                    fill="rgba(255,155,45,0.14)" stroke="rgba(255,155,45,0.3)"/>
              <text x="43" y="10" text-anchor="middle"
                    font-size="9.5" fill="#ffd89a" font-family="'Noto Serif SC', 'Inter', system-ui, sans-serif">Chrome MV3</text>
              <rect x="78" y="0" width="114" height="14" rx="7"
                    fill="rgba(255,155,45,0.14)" stroke="rgba(255,155,45,0.3)"/>
              <text x="135" y="10" text-anchor="middle"
                    font-size="9.5" fill="#ffd89a" font-family="'Noto Serif SC', 'Inter', system-ui, sans-serif">service-worker</text>
        </g>
      </g>
      
      <g transform="translate(0, 116)">
        <rect x="0" y="0" width="328" height="92" rx="10"
              fill="rgba(38,36,30,0.88)" stroke="rgba(255,243,220,0.08)"/>
        <circle cx="14" cy="14" r="4" fill="#e85d0a"/>
        <text x="26" y="18" font-size="10.5" fill="#b6b3a3" font-family="'Noto Serif SC', 'Inter', system-ui, sans-serif">arxiv.org · 2024.11</text>
        <text x="310" y="18" font-size="10" fill="#8e8a7a" font-family="'JetBrains Mono', ui-monospace, monospace" text-anchor="end">11:08</text>
        <polygon points="324,10 327,16 333,17 329,22 330,28 324,25 318,28 319,22 315,17 321,16" fill="#ff9b2d"/>
        <text x="48" y="38" font-size="12.5" fill="#f7f7f5" font-family="'Noto Serif SC', 'Inter', system-ui, sans-serif">Hybrid retrieval consistently outperforms pure</text><text x="48" y="56.75" font-size="12.5" fill="#f7f7f5" font-family="'Noto Serif SC', 'Inter', system-ui, sans-serif">dense retrieval when the corpus contains domain</text><text x="48" y="75.5" font-size="12.5" fill="#f7f7f5" font-family="'Noto Serif SC', 'Inter', system-ui, sans-serif">terminology.</text>
        <g transform="translate(14, 76)">
          
              <rect x="0" y="0" width="37" height="14" rx="7"
                    fill="rgba(255,155,45,0.14)" stroke="rgba(255,155,45,0.3)"/>
              <text x="18.5" y="10" text-anchor="middle"
                    font-size="9.5" fill="#ffd89a" font-family="'Noto Serif SC', 'Inter', system-ui, sans-serif">RAG</text>
              <rect x="78" y="0" width="79" height="14" rx="7"
                    fill="rgba(255,155,45,0.14)" stroke="rgba(255,155,45,0.3)"/>
              <text x="117.5" y="10" text-anchor="middle"
                    font-size="9.5" fill="#ffd89a" font-family="'Noto Serif SC', 'Inter', system-ui, sans-serif">retrieval</text>
        </g>
      </g>
    </g>
    <g transform="translate(20, 460)">
      <text x="0" y="0" font-size="10" fill="#8e8a7a" font-family="'JetBrains Mono', ui-monospace, monospace"
            letter-spacing="0.12em">昨天</text>
      
      <g transform="translate(0, 12)">
        <rect x="0" y="0" width="328" height="92" rx="10"
              fill="rgba(38,36,30,0.88)" stroke="rgba(255,243,220,0.08)"/>
        <circle cx="14" cy="14" r="4" fill="#e85d0a"/>
        <text x="26" y="18" font-size="10.5" fill="#b6b3a3" font-family="'Noto Serif SC', 'Inter', system-ui, sans-serif">obsidian.md · forum</text>
        <text x="310" y="18" font-size="10" fill="#8e8a7a" font-family="'JetBrains Mono', ui-monospace, monospace" text-anchor="end">22:14</text>
        
        <text x="48" y="38" font-size="12.5" fill="#f7f7f5" font-family="'Noto Serif SC', 'Inter', system-ui, sans-serif">"A second brain doesnu2019t help if itu2019s</text><text x="48" y="56.75" font-size="12.5" fill="#f7f7f5" font-family="'Noto Serif SC', 'Inter', system-ui, sans-serif">not actually a second. It has to be where your</text><text x="48" y="75.5" font-size="12.5" fill="#f7f7f5" font-family="'Noto Serif SC', 'Inter', system-ui, sans-serif">first brain runs into limits."</text>
        <g transform="translate(14, 76)">
          
              <rect x="0" y="0" width="44" height="14" rx="7"
                    fill="rgba(255,155,45,0.14)" stroke="rgba(255,155,45,0.3)"/>
              <text x="22" y="10" text-anchor="middle"
                    font-size="9.5" fill="#ffd89a" font-family="'Noto Serif SC', 'Inter', system-ui, sans-serif">知识管理</text>
        </g>
      </g>
    </g>
  </g>

  <!-- Right side: brand + tagline + tags + orb -->
  <g transform="translate(540, 130)">
    <!-- brand mark -->
    <g>
      <rect width="60" height="60" rx="18" fill="url(#orb)"/>
      <use href="#brand" x="11" y="11" width="38" height="38" color="rgba(20,18,15,0.85)"/>
    </g>
    <!-- big title -->
    <text x="0" y="120" font-size="84" font-weight="700" fill="#f7f7f5" font-family="'Noto Serif SC', 'Inter', system-ui, sans-serif"
          letter-spacing="-2">Hearth</text>
    <text x="0" y="172" font-size="30" font-weight="500" fill="url(#ember-text)" font-family="'Noto Serif SC', 'Inter', system-ui, sans-serif"
          letter-spacing="-0.5">你读过的，都被静静记着。</text>
    <text x="0" y="218" font-size="18" fill="#b6b3a3" font-family="'Noto Serif SC', 'Inter', system-ui, sans-serif">
      Local-first knowledge companion · BYO LLM · Reverse-recall ☕
    </text>

    <!-- chips -->
    <g transform="translate(0, 260)" font-size="13" font-family="'Noto Serif SC', 'Inter', system-ui, sans-serif">
      
    <g transform="translate(0, 0)">
      <rect width="194" height="28" rx="14"
            fill="rgba(28,26,22,0.7)" stroke="rgba(255,243,220,0.14)"/>
      <use href="#shield" x="9" y="6" width="14" height="14" color="#85a987"/>
      <text x="29" y="19" fill="#d6d4ca" font-family="'Noto Serif SC', 'Inter', system-ui, sans-serif" font-size="12.5">本地 SQLite + OPFS</text>
    </g>
      
    <g transform="translate(220, 0)">
      <rect width="149" height="28" rx="14"
            fill="rgba(28,26,22,0.7)" stroke="rgba(255,243,220,0.14)"/>
      <use href="#spark" x="9" y="6" width="14" height="14" color="#85a987"/>
      <text x="29" y="19" fill="#d6d4ca" font-family="'Noto Serif SC', 'Inter', system-ui, sans-serif" font-size="12.5">BYO API Key</text>
    </g>
      
    <g transform="translate(380, 0)">
      <rect width="185" height="28" rx="14"
            fill="rgba(28,26,22,0.7)" stroke="rgba(255,243,220,0.14)"/>
      <use href="#feather" x="9" y="6" width="14" height="14" color="#85a987"/>
      <text x="29" y="19" fill="#d6d4ca" font-family="'Noto Serif SC', 'Inter', system-ui, sans-serif" font-size="12.5">MIT Open Source</text>
    </g>
    </g>

    <!-- features grid -->
    <g transform="translate(0, 320)">
      
    <g transform="translate(0, 0)">
      <rect width="155" height="84" rx="12"
            fill="rgba(28,26,22,0.7)" stroke="rgba(255,243,220,0.10)"/>
      <text x="14" y="22" font-size="11" font-weight="600" fill="#8e8a7a" font-family="'JetBrains Mono', ui-monospace, monospace"
            letter-spacing="0.08em">L0</text>
      <text x="14" y="46" font-size="14" font-weight="700" fill="#f7f7f5" font-family="'Noto Serif SC', 'Inter', system-ui, sans-serif">寄生候选</text>
      <text x="14" y="66" font-size="11.5" fill="#b6b3a3" font-family="'Noto Serif SC', 'Inter', system-ui, sans-serif">后台默默落 Inbox</text>
    </g>
      
    <g transform="translate(170, 0)">
      <rect width="155" height="84" rx="12"
            fill="rgba(28,26,22,0.7)" stroke="rgba(255,243,220,0.10)"/>
      <text x="14" y="22" font-size="11" font-weight="600" fill="#8e8a7a" font-family="'JetBrains Mono', ui-monospace, monospace"
            letter-spacing="0.08em">L1</text>
      <text x="14" y="46" font-size="14" font-weight="700" fill="#f7f7f5" font-family="'Noto Serif SC', 'Inter', system-ui, sans-serif">选中浮 bar</text>
      <text x="14" y="66" font-size="11.5" fill="#b6b3a3" font-family="'Noto Serif SC', 'Inter', system-ui, sans-serif">一秒按一下</text>
    </g>
      
    <g transform="translate(340, 0)">
      <rect width="155" height="84" rx="12"
            fill="rgba(28,26,22,0.7)" stroke="rgba(255,243,220,0.10)"/>
      <text x="14" y="22" font-size="11" font-weight="600" fill="#ff9b2d" font-family="'JetBrains Mono', ui-monospace, monospace"
            letter-spacing="0.08em">L2</text>
      <text x="14" y="46" font-size="14" font-weight="700" fill="#f7f7f5" font-family="'Noto Serif SC', 'Inter', system-ui, sans-serif">反向召回 ☕</text>
      <text x="14" y="66" font-size="11.5" fill="#b6b3a3" font-family="'Noto Serif SC', 'Inter', system-ui, sans-serif">旧笔记主动找你</text>
    </g>
      
    <g transform="translate(0, 100)">
      <rect width="155" height="84" rx="12"
            fill="rgba(28,26,22,0.7)" stroke="rgba(255,243,220,0.10)"/>
      <text x="14" y="22" font-size="11" font-weight="600" fill="#8e8a7a" font-family="'JetBrains Mono', ui-monospace, monospace"
            letter-spacing="0.08em">L3</text>
      <text x="14" y="46" font-size="14" font-weight="700" fill="#f7f7f5" font-family="'Noto Serif SC', 'Inter', system-ui, sans-serif">周回顾</text>
      <text x="14" y="66" font-size="11.5" fill="#b6b3a3" font-family="'Noto Serif SC', 'Inter', system-ui, sans-serif">5 分钟一次</text>
    </g>
      
    <g transform="translate(170, 100)">
      <rect width="155" height="84" rx="12"
            fill="rgba(28,26,22,0.7)" stroke="rgba(255,243,220,0.10)"/>
      <text x="14" y="22" font-size="11" font-weight="600" fill="#8e8a7a" font-family="'JetBrains Mono', ui-monospace, monospace"
            letter-spacing="0.08em">🔥</text>
      <text x="14" y="46" font-size="14" font-weight="700" fill="#f7f7f5" font-family="'Noto Serif SC', 'Inter', system-ui, sans-serif">LSH 144×</text>
      <text x="14" y="66" font-size="11.5" fill="#b6b3a3" font-family="'Noto Serif SC', 'Inter', system-ui, sans-serif">比全扫快</text>
    </g>
      
    <g transform="translate(340, 100)">
      <rect width="155" height="84" rx="12"
            fill="rgba(28,26,22,0.7)" stroke="rgba(255,243,220,0.10)"/>
      <text x="14" y="22" font-size="11" font-weight="600" fill="#8e8a7a" font-family="'JetBrains Mono', ui-monospace, monospace"
            letter-spacing="0.08em">🛡</text>
      <text x="14" y="46" font-size="14" font-weight="700" fill="#f7f7f5" font-family="'Noto Serif SC', 'Inter', system-ui, sans-serif">出网审计</text>
      <text x="14" y="66" font-size="11.5" fill="#b6b3a3" font-family="'Noto Serif SC', 'Inter', system-ui, sans-serif">每次都登账</text>
    </g>
    </g>

    <!-- floating orb tooltip with arrow -->
  </g>

  <!-- Recall orb floating bottom-right (cluster) -->
  <g transform="translate(1380, 540)">
    <circle cx="0" cy="0" r="120" fill="url(#halo)"/>
    <circle cx="0" cy="0" r="56" fill="url(#orb)" stroke="rgba(255,255,255,0.25)" stroke-width="1.5"/>
    <use href="#flame" x="-22" y="-22" width="44" height="44" color="rgba(45,18,0,0.88)"/>
    <!-- pulse ring -->
    <circle cx="0" cy="0" r="78" fill="none" stroke="#ff9b2d" stroke-width="1" opacity="0.3"/>
  </g>

  <!-- Bottom-left tagline -->
  <g transform="translate(90, 680)" font-family="'JetBrains Mono', ui-monospace, monospace" font-size="13">
    <text fill="#8e8a7a" letter-spacing="2.5">
      OPEN  ·  PRIVATE  ·  YOURS  ·  github.com/telagod/hearth-ext
    </text>
  </g>
</svg>