<?xml version="1.0" encoding="UTF-8"?>
<svg xmlns="http://www.w3.org/2000/svg" viewBox="0 0 1280 800">
  <defs>
    <radialGradient id="bg" cx="78%" cy="20%" r="80%">
      <stop offset="0%" stop-color="#ff9b2d" stop-opacity="0.40"/>
      <stop offset="60%" stop-color="#262620" stop-opacity="0.95"/>
      <stop offset="100%" stop-color="#131210" stop-opacity="1"/>
    </radialGradient>
    <radialGradient id="orb" cx="35%" cy="30%" r="65%">
      <stop offset="0%"  stop-color="#fff3c8"/>
      <stop offset="35%" stop-color="#ffd89a"/>
      <stop offset="70%" stop-color="#ff9b2d"/>
      <stop offset="100%" stop-color="#c0420c" stop-opacity="0.9"/>
    </radialGradient>
    <radialGradient id="halo" cx="35%" cy="30%" r="58%">
      <stop offset="0%"  stop-color="#ff9b2d" stop-opacity="0.45"/>
      <stop offset="100%" stop-color="#ff9b2d" stop-opacity="0"/>
    </radialGradient>
  </defs>

  <rect width="1280" height="800" fill="url(#bg)"/>

  <!-- Decorative grain -->
  <g opacity="0.06" fill="white">
    <circle cx="1232" cy="267" r="0.6"/>
    <circle cx="1258" cy="542" r="0.9"/>
    <circle cx="201" cy="742" r="1.4"/>
    <circle cx="977" cy="61" r="0.5"/>
    <circle cx="426" cy="705" r="1.8"/>
    <circle cx="15" cy="385" r="1.6"/>
    <circle cx="1216" cy="287" r="0.6"/>
    <circle cx="563" cy="73" r="0.6"/>
    <circle cx="203" cy="342" r="1.7"/>
    <circle cx="590" cy="768" r="1.5"/>
    <circle cx="704" cy="293" r="0.6"/>
    <circle cx="80" cy="749" r="0.5"/>
    <circle cx="1143" cy="308" r="1.5"/>
    <circle cx="130" cy="573" r="1.3"/>
    <circle cx="354" cy="139" r="0.6"/>
    <circle cx="11" cy="679" r="1.3"/>
    <circle cx="996" cy="137" r="2.0"/>
    <circle cx="370" cy="276" r="1.3"/>
    <circle cx="1185" cy="781" r="0.5"/>
    <circle cx="107" cy="411" r="1.1"/>
    <circle cx="589" cy="539" r="1.7"/>
    <circle cx="1266" cy="755" r="1.6"/>
    <circle cx="51" cy="412" r="1.4"/>
    <circle cx="1006" cy="508" r="1.2"/>
    <circle cx="1035" cy="389" r="0.9"/>
    <circle cx="1071" cy="398" r="1.5"/>
    <circle cx="978" cy="331" r="0.8"/>
    <circle cx="547" cy="153" r="1.4"/>
    <circle cx="174" cy="457" r="0.6"/>
    <circle cx="259" cy="446" r="1.9"/>
    <circle cx="388" cy="747" r="0.7"/>
    <circle cx="68" cy="664" r="1.5"/>
    <circle cx="670" cy="728" r="1.0"/>
    <circle cx="97" cy="62" r="0.7"/>
    <circle cx="806" cy="613" r="1.7"/>
    <circle cx="790" cy="511" r="0.5"/>
    <circle cx="1199" cy="11" r="1.9"/>
    <circle cx="736" cy="635" r="1.7"/>
    <circle cx="1228" cy="770" r="0.7"/>
    <circle cx="1139" cy="596" r="1.5"/>
    <circle cx="20" cy="389" r="1.3"/>
    <circle cx="699" cy="678" r="1.9"/>
    <circle cx="1198" cy="393" r="2.0"/>
    <circle cx="687" cy="796" r="1.8"/>
    <circle cx="1192" cy="739" r="1.3"/>
    <circle cx="81" cy="404" r="1.5"/>
    <circle cx="1062" cy="435" r="1.9"/>
    <circle cx="1002" cy="534" r="0.9"/>
    <circle cx="847" cy="530" r="0.8"/>
    <circle cx="364" cy="750" r="1.0"/>
    <circle cx="987" cy="125" r="1.8"/>
    <circle cx="648" cy="258" r="1.5"/>
    <circle cx="1179" cy="68" r="1.0"/>
    <circle cx="1153" cy="156" r="1.3"/>
    <circle cx="685" cy="685" r="0.7"/>
    <circle cx="776" cy="68" r="1.2"/>
    <circle cx="262" cy="224" r="0.8"/>
    <circle cx="239" cy="687" r="1.2"/>
    <circle cx="247" cy="787" r="1.3"/>
    <circle cx="997" cy="632" r="1.7"/>
    <circle cx="909" cy="246" r="0.7"/>
    <circle cx="572" cy="458" r="0.7"/>
    <circle cx="81" cy="13" r="0.8"/>
    <circle cx="357" cy="784" r="1.7"/>
    <circle cx="737" cy="304" r="0.5"/>
    <circle cx="744" cy="276" r="1.5"/>
    <circle cx="395" cy="562" r="1.8"/>
    <circle cx="965" cy="314" r="1.8"/>
    <circle cx="682" cy="680" r="1.5"/>
    <circle cx="372" cy="322" r="1.3"/>
    <circle cx="1032" cy="34" r="0.7"/>
    <circle cx="735" cy="439" r="1.8"/>
    <circle cx="138" cy="796" r="1.5"/>
    <circle cx="1274" cy="791" r="1.8"/>
    <circle cx="911" cy="495" r="1.0"/>
    <circle cx="914" cy="157" r="0.8"/>
    <circle cx="452" cy="596" r="1.6"/>
    <circle cx="188" cy="103" r="1.9"/>
    <circle cx="1202" cy="103" r="1.2"/>
    <circle cx="710" cy="31" r="1.9"/>
  </g>

  <!-- Orb cluster on the right -->
  <g transform="translate(998.4000000000001, 360)">
    <circle cx="0" cy="0" r="220" fill="url(#halo)"/>
    <circle cx="0" cy="0" r="140" fill="url(#orb)" stroke="rgba(255,255,255,0.2)" stroke-width="2"/>
    <!-- flame glyph inside orb -->
    <g transform="translate(-50, -52) scale(4.2)">
      <path d="M12 3 C9 7 7.5 10 8 13 Q9 17 12 18 Q15 17 16 13 C16.5 10 15 7 12 3 Z" fill="rgba(45,18,0,0.85)"/>
    </g>
  </g>

  <!-- Text block on the left -->
  <g transform="translate(70, 200)">
    <text x="0" y="0" font-family="Noto Serif SC, serif" font-weight="700"
          font-size="86" fill="#ebe9e0" letter-spacing="-1">Hearth</text>
    <text x="0" y="130" font-family="Inter, sans-serif" font-weight="500"
          font-size="32" fill="#b8b4a4">Bring your old notes back into the moment.</text>
    
    <g transform="translate(0, 200)">
      <rect x="0" y="0" width="180" height="44" rx="22" fill="#ff9b2d"/>
      <text x="90" y="29" text-anchor="middle" font-family="Inter, sans-serif"
            font-weight="600" font-size="16" fill="#fff">Install ☕</text>
    </g>
    
  </g>

  <!-- Bottom-left tagline (big only) -->
  
  <g transform="translate(70, 740)">
    <text font-family="JetBrains Mono, monospace" font-size="14" fill="#898577"
          letter-spacing="2" text-transform="uppercase">
      LOCAL-FIRST  ·  BYOK  ·  MIT OPEN SOURCE
    </text>
  </g>
  
</svg>