<?xml version="1.0" encoding="UTF-8"?>
<svg xmlns="http://www.w3.org/2000/svg" viewBox="0 0 440 280">
  <defs>
    <radialGradient id="bg" cx="78%" cy="20%" r="80%">
      <stop offset="0%" stop-color="#ff9b2d" stop-opacity="0.40"/>
      <stop offset="60%" stop-color="#262620" stop-opacity="0.95"/>
      <stop offset="100%" stop-color="#131210" stop-opacity="1"/>
    </radialGradient>
    <radialGradient id="orb" cx="35%" cy="30%" r="65%">
      <stop offset="0%"  stop-color="#fff3c8"/>
      <stop offset="35%" stop-color="#ffd89a"/>
      <stop offset="70%" stop-color="#ff9b2d"/>
      <stop offset="100%" stop-color="#c0420c" stop-opacity="0.9"/>
    </radialGradient>
    <radialGradient id="halo" cx="35%" cy="30%" r="58%">
      <stop offset="0%"  stop-color="#ff9b2d" stop-opacity="0.45"/>
      <stop offset="100%" stop-color="#ff9b2d" stop-opacity="0"/>
    </radialGradient>
  </defs>

  <rect width="440" height="280" fill="url(#bg)"/>

  <!-- Decorative grain -->
  <g opacity="0.06" fill="white">
    <circle cx="186" cy="113" r="1.4"/>
    <circle cx="148" cy="170" r="1.4"/>
    <circle cx="322" cy="150" r="1.3"/>
    <circle cx="118" cy="37" r="0.7"/>
    <circle cx="436" cy="140" r="1.4"/>
    <circle cx="145" cy="277" r="1.4"/>
    <circle cx="384" cy="29" r="1.9"/>
    <circle cx="264" cy="224" r="0.8"/>
    <circle cx="107" cy="31" r="0.6"/>
    <circle cx="135" cy="166" r="1.7"/>
    <circle cx="43" cy="154" r="1.9"/>
    <circle cx="70" cy="221" r="0.7"/>
    <circle cx="28" cy="203" r="1.9"/>
    <circle cx="205" cy="112" r="0.7"/>
    <circle cx="80" cy="169" r="0.9"/>
    <circle cx="436" cy="206" r="1.6"/>
    <circle cx="393" cy="248" r="1.7"/>
    <circle cx="107" cy="177" r="0.7"/>
    <circle cx="232" cy="180" r="0.9"/>
    <circle cx="317" cy="189" r="1.4"/>
    <circle cx="251" cy="9" r="1.5"/>
    <circle cx="325" cy="38" r="1.7"/>
    <circle cx="1" cy="135" r="0.9"/>
    <circle cx="344" cy="209" r="0.7"/>
    <circle cx="246" cy="58" r="1.4"/>
    <circle cx="99" cy="40" r="1.9"/>
    <circle cx="22" cy="165" r="1.3"/>
    <circle cx="263" cy="241" r="1.2"/>
    <circle cx="181" cy="145" r="0.6"/>
    <circle cx="70" cy="135" r="1.6"/>
    <circle cx="278" cy="240" r="0.6"/>
    <circle cx="263" cy="36" r="1.5"/>
    <circle cx="44" cy="160" r="0.9"/>
    <circle cx="74" cy="25" r="0.7"/>
    <circle cx="118" cy="58" r="1.5"/>
    <circle cx="111" cy="46" r="0.6"/>
    <circle cx="96" cy="89" r="1.9"/>
    <circle cx="393" cy="215" r="1.7"/>
    <circle cx="136" cy="9" r="0.6"/>
    <circle cx="336" cy="186" r="1.3"/>
    <circle cx="278" cy="200" r="1.9"/>
    <circle cx="318" cy="72" r="1.7"/>
    <circle cx="75" cy="108" r="0.6"/>
    <circle cx="228" cy="207" r="1.9"/>
    <circle cx="435" cy="153" r="1.3"/>
    <circle cx="265" cy="171" r="0.6"/>
    <circle cx="93" cy="251" r="1.7"/>
    <circle cx="267" cy="84" r="1.7"/>
    <circle cx="202" cy="227" r="0.9"/>
    <circle cx="272" cy="111" r="1.9"/>
    <circle cx="95" cy="47" r="1.1"/>
    <circle cx="243" cy="139" r="0.7"/>
    <circle cx="181" cy="165" r="1.8"/>
    <circle cx="175" cy="147" r="0.7"/>
    <circle cx="314" cy="178" r="1.1"/>
    <circle cx="56" cy="192" r="1.3"/>
    <circle cx="117" cy="231" r="1.9"/>
    <circle cx="248" cy="21" r="2.0"/>
    <circle cx="152" cy="155" r="1.8"/>
    <circle cx="150" cy="24" r="1.9"/>
    <circle cx="217" cy="72" r="0.6"/>
    <circle cx="10" cy="209" r="1.1"/>
    <circle cx="266" cy="63" r="0.9"/>
    <circle cx="190" cy="127" r="0.7"/>
    <circle cx="95" cy="205" r="0.9"/>
    <circle cx="297" cy="183" r="1.4"/>
    <circle cx="146" cy="151" r="0.6"/>
    <circle cx="162" cy="30" r="1.7"/>
    <circle cx="47" cy="223" r="0.6"/>
    <circle cx="137" cy="101" r="2.0"/>
    <circle cx="375" cy="65" r="1.4"/>
    <circle cx="30" cy="160" r="1.8"/>
    <circle cx="297" cy="4" r="1.6"/>
    <circle cx="185" cy="115" r="1.3"/>
    <circle cx="95" cy="146" r="0.7"/>
    <circle cx="196" cy="195" r="0.7"/>
    <circle cx="19" cy="254" r="1.3"/>
    <circle cx="430" cy="264" r="0.9"/>
    <circle cx="71" cy="18" r="1.2"/>
    <circle cx="131" cy="139" r="1.4"/>
  </g>

  <!-- Orb cluster on the right -->
  <g transform="translate(343.2, 126)">
    <circle cx="0" cy="0" r="120" fill="url(#halo)"/>
    <circle cx="0" cy="0" r="75" fill="url(#orb)" stroke="rgba(255,255,255,0.2)" stroke-width="2"/>
    <!-- flame glyph inside orb -->
    <g transform="translate(-28, -28) scale(2.4)">
      <path d="M12 3 C9 7 7.5 10 8 13 Q9 17 12 18 Q15 17 16 13 C16.5 10 15 7 12 3 Z" fill="rgba(45,18,0,0.85)"/>
    </g>
  </g>

  <!-- Text block on the left -->
  <g transform="translate(32, 80)">
    <text x="0" y="0" font-family="Noto Serif SC, serif" font-weight="700"
          font-size="36" fill="#ebe9e0" letter-spacing="-1">Hearth</text>
    <text x="0" y="60" font-family="Inter, sans-serif" font-weight="500"
          font-size="16" fill="#b8b4a4">Your reading, remembered. Quietly.</text>
    
  </g>

  <!-- Bottom-left tagline (big only) -->
  
</svg>